<?xml version="1.0" standalone="no"?>
<!DOCTYPE svg PUBLIC "-//W3C//DTD SVG 20010904//EN"
 "http://www.w3.org/TR/2001/REC-SVG-20010904/DTD/svg10.dtd">
<svg version="1.0" xmlns="http://www.w3.org/2000/svg"
 width="520.000000pt" height="520.000000pt" viewBox="0 0 520.000000 520.000000"
 preserveAspectRatio="xMidYMid meet">
<metadata>
Created by potrace 1.11, written by Peter Selinger 2001-2013
</metadata>
<g transform="translate(0.000000,520.000000) scale(0.100000,-0.100000)"
fill="#000000" stroke="none">
<path d="M0 2600 l0 -2600 2600 0 2600 0 0 2600 0 2600 -2600 0 -2600 0 0
-2600z m2630 1233 c0 -5 -51 -245 -113 -535 l-114 -528 238 0 238 0 11 53 c6
28 57 268 114 532 l103 480 425 3 425 2 -13 -57 c-7 -32 -126 -584 -265 -1228
-138 -643 -255 -1173 -258 -1178 -4 -4 -194 -6 -422 -5 l-416 3 113 530 c62
292 113 538 114 548 0 16 -16 17 -237 15 l-238 -3 -115 -545 -116 -545 -421
-3 -421 -2 28 132 c267 1259 492 2316 495 2326 3 9 97 12 425 12 231 0 420 -3
420 -7z m-1126 -441 c-5 -5 -208 -183 -451 -395 -243 -213 -444 -390 -446
-394 -3 -5 134 -188 304 -407 170 -220 309 -401 309 -403 0 -2 -103 -3 -229
-3 l-230 0 -287 353 c-158 193 -307 375 -331 404 l-44 51 478 401 478 400 229
1 c127 0 226 -4 220 -8z m3269 -392 l327 -401 -27 -23 c-16 -13 -232 -195
-482 -405 l-454 -381 -224 0 c-122 0 -223 3 -222 8 0 5 714 633 880 774 l31
26 -299 389 c-165 214 -303 394 -307 401 -5 9 46 12 221 12 l228 0 328 -400z"/>
</g>
</svg>
